<svg viewBox="0 0 32 33"  xmlns="http://www.w3.org/2000/svg">
<path d="M14.32 19.16L11.71 16.55C11.49 16.33 11.22 16.22 10.9 16.22C10.58 16.22 10.3 16.34 10.06 16.58C9.84 16.8 9.73 17.08 9.73 17.42C9.73 17.76 9.84 18.04 10.06 18.26L13.48 21.68C13.7 21.9 13.98 22.01 14.32 22.01C14.66 22.01 14.94 21.9 15.16 21.68L21.97 14.87C22.19 14.65 22.3 14.38 22.3 14.06C22.3 13.74 22.18 13.46 21.94 13.22C21.72 13 21.44 12.89 21.1 12.89C20.76 12.89 20.48 13 20.26 13.22L14.32 19.16ZM16 29C14.34 29 12.78 28.6848 11.32 28.0544C9.86 27.424 8.59 26.5692 7.51 25.49C6.43 24.41 5.5752 23.14 4.9456 21.68C4.316 20.22 4.0008 18.66 4 17C4 15.34 4.3152 13.78 4.9456 12.32C5.576 10.86 6.4308 9.59 7.51 8.51C8.59 7.43 9.86 6.5752 11.32 5.9456C12.78 5.316 14.34 5.0008 16 5C17.66 5 19.22 5.3152 20.68 5.9456C22.14 6.576 23.41 7.4308 24.49 8.51C25.57 9.59 26.4252 10.86 27.0556 12.32C27.686 13.78 28.0008 15.34 28 17C28 18.66 27.6848 20.22 27.0544 21.68C26.424 23.14 25.5692 24.41 24.49 25.49C23.41 26.57 22.14 27.4252 20.68 28.0556C19.22 28.686 17.66 29.0008 16 29Z" />
</svg>
