<svg viewBox="0 0 24 25" xmlns="http://www.w3.org/2000/svg">
<path d="M19.35 10.54C19.0141 8.83772 18.0976 7.30486 16.7571 6.20325C15.4165 5.10163 13.7351 4.49961 12 4.5C9.11 4.5 6.6 6.14 5.35 8.54C3.88023 8.69883 2.52101 9.39521 1.53349 10.4953C0.545971 11.5954 -0.000171702 13.0217 4.04928e-08 14.5C4.04928e-08 17.81 2.69 20.5 6 20.5H19C21.76 20.5 24 18.26 24 15.5C24 12.86 21.95 10.72 19.35 10.54ZM10.71 16.79C10.6175 16.8827 10.5076 16.9563 10.3866 17.0064C10.2657 17.0566 10.136 17.0824 10.005 17.0824C9.87403 17.0824 9.74435 17.0566 9.62338 17.0064C9.5024 16.9563 9.39251 16.8827 9.3 16.79L7.2 14.7C7.10742 14.6074 7.03398 14.4975 6.98387 14.3765C6.93377 14.2556 6.90798 14.1259 6.90798 13.995C6.90798 13.7306 7.01302 13.477 7.2 13.29C7.38698 13.103 7.64057 12.998 7.905 12.998C8.16943 12.998 8.42302 13.103 8.61 13.29L10 14.68L14.48 10.2C14.667 10.013 14.9206 9.90798 15.185 9.90798C15.4494 9.90798 15.703 10.013 15.89 10.2C16.077 10.387 16.182 10.6406 16.182 10.905C16.182 11.1694 16.077 11.423 15.89 11.61L10.71 16.79Z" />
</svg>
